<?xml version="1.0" encoding="utf-8"?>
<!-- Generator: Adobe Illustrator 24.1.1, SVG Export Plug-In . SVG Version: 6.00 Build 0)  -->
<svg version="1.1" xmlns="http://www.w3.org/2000/svg" xmlns:xlink="http://www.w3.org/1999/xlink" x="0px" y="0px"
	 viewBox="0 0 512 512" style="enable-background:new 0 0 512 512;" xml:space="preserve">
<style type="text/css">
	.st0{fill:#2A61FF;}
	.st1{fill:none;stroke:#000000;stroke-miterlimit:10;}
	.st2{fill:#FFFFFF;}
	.st3{fill:#74AFFF;}
	.st4{fill:#0033C9;}
	.st5{fill:#35BDFF;}
	.st6{fill:#31EEFF;stroke:#FFFFFF;stroke-width:4;stroke-miterlimit:10;}
</style>
<g id="Layer_4">
	<circle class="st0" cx="256" cy="256" r="232.52"/>
</g>
<g id="Layer_3">
	<path class="st1" d="M236.56,51.33"/>
</g>
<g id="Layer_1">
	<path class="st2" d="M122.9,232.99c84.79,0.76,169.58,1.52,254.37,2.28c3.14,39.15,6.28,78.29,9.42,117.44
		c-25.08,21.61-48.25,32.76-64.06,38.77c-15.37,5.84-84.4,29.86-158.28-9.69c-23.2-12.42-40.34-27.61-51.35-38.77
		C116.3,306.34,119.6,269.66,122.9,232.99z"/>
	<path class="st3" d="M167.46,326.29c2.97,5.03,28.51,46.78,75.56,53.23c22.96,3.15,43.36-3.17,52.51-6.58
		c0.6-0.22,1.9-0.6,3.55-1.39c12.17-5.77,27.75-22.38,26.74-30.05c-0.13-0.96-13.66,2.39-14.49,2.47
		c-15.29,1.38-25.56,4.27-61.72,5.4C216.26,350.41,187.99,338.43,167.46,326.29z"/>
	<polyline class="st3" points="137.47,111.07 126.88,100.92 119.65,112.61 120.62,214.31 150.54,214.31 	"/>
	<polyline class="st3" points="150.54,214.31 186.67,214.31 175.07,113.07 165.89,100.92 158.67,112.61 	"/>
	<polyline class="st3" points="218.69,112.07 207.08,100.92 199.85,112.61 186.67,214.31 225.4,214.31 	"/>
	<polyline class="st3" points="225.4,214.31 271.23,214.31 249.87,112.07 241.4,100.92 234.18,112.61 	"/>
	<polyline class="st3" points="298.41,111.57 283.93,98.6 273.66,115.47 271.23,214.31 311.02,214.31 	"/>
	<polyline class="st3" points="311.02,214.31 350.03,214.31 335.01,112.57 326.41,100.5 317.82,110.68 	"/>
	<polyline class="st3" points="373.99,109.78 365.68,99.5 357.83,109.06 350.03,214.31 379.95,214.31 	"/>
	<polyline class="st2" points="137.47,111.07 145.31,100.92 158.67,112.61 150.54,210.84 	"/>
	<polyline class="st2" points="174.86,112.84 184.6,100.92 199.85,112.61 186.67,214.31 	"/>
	<polyline class="st2" points="216.38,110.49 224.29,100.92 237.03,109.3 225.4,213.24 	"/>
	<polyline class="st2" points="249.45,112.26 259.97,99.5 273.66,115.47 271.01,213.24 249.45,112.26 	"/>
	<polyline class="st2" points="298.21,111.84 308.74,99.09 317.82,110.68 311.02,211.92 298.21,111.84 	"/>
	<polyline class="st2" points="335,112.26 345.53,99.5 357.83,109.06 350.2,211.42 335,112.26 	"/>
	<polyline class="st4" points="114.04,225.91 235.02,229.41 235.02,295.14 165.09,295.14 108.8,295.14 114.04,229.41 	"/>
	<polyline class="st5" points="381.43,228.6 260.45,232.1 260.45,297.83 330.38,297.83 389.4,297.83 381.43,232.1 	"/>
	<polygon class="st6" points="108.8,219.62 389.4,219.62 382.09,237.5 113.39,237.5 	"/>
</g>
</svg>
