<svg xmlns="http://www.w3.org/2000/svg" viewBox="0 0 465.04 465.04"><defs><style>.cls-1{fill:#2a61ff;}.cls-2{fill:none;stroke:#000;}.cls-10,.cls-2,.cls-4,.cls-5{stroke-miterlimit:10;}.cls-3,.cls-4,.cls-5{fill:#00078a;}.cls-3{opacity:0.36;}.cls-4,.cls-5{stroke:#00078a;opacity:0.35;}.cls-10,.cls-4{stroke-width:4px;}.cls-6{fill:#fff;}.cls-7{fill:#74afff;}.cls-8{fill:#0033c9;}.cls-9{fill:#35bdff;}.cls-10{fill:#31eeff;stroke:#fff;}</style></defs><g id="Layer_4" data-name="Layer 4"><circle class="cls-1" cx="232.52" cy="232.52" r="232.52"/></g><g id="Layer_3" data-name="Layer 3"><path class="cls-2" d="M236.56,64.76" transform="translate(-23.48 -36.91)"/></g><g id="Layer_1" data-name="Layer 1"><polyline class="cls-3" points="367.87 108.6 359.57 98.33 351.71 107.88 343.92 213.13 373.83 213.13"/><polygon class="cls-4" points="102.23 215.17 382.83 215.17 375.52 233.04 106.83 233.04 102.23 215.17"/><path class="cls-5" d="M146,270.27l254.37,2.28L409.8,390c-25.08,21.61-48.25,32.75-64.06,38.76-15.37,5.84-84.41,29.86-158.28-9.69a215.65,215.65,0,0,1-51.35-38.76Z" transform="translate(-23.48 -36.91)"/><path class="cls-6" d="M125.5,252l254.37,2.28,9.42,117.44c-25.07,21.61-48.25,32.76-64.06,38.76-15.37,5.84-84.41,29.86-158.28-9.69A215.77,215.77,0,0,1,115.61,362Z" transform="translate(-23.48 -36.91)"/><path class="cls-7" d="M170.06,345.25c3,5,28.51,46.79,75.56,53.23,23,3.15,43.36-3.17,52.51-6.58a32.44,32.44,0,0,0,3.54-1.38c12.18-5.77,27.75-22.38,26.75-30-.13-1-13.66,2.39-14.49,2.47-15.29,1.38-25.56,4.27-61.72,5.4C218.86,369.37,190.59,357.39,170.06,345.25Z" transform="translate(-23.48 -36.91)"/><polyline class="cls-7" points="116.59 93.12 106 82.97 98.77 94.66 99.75 196.37 129.66 196.37"/><polyline class="cls-7" points="129.66 196.37 165.79 196.37 154.19 95.13 145.01 82.97 137.79 94.66"/><polyline class="cls-7" points="197.81 94.13 186.2 82.97 178.97 94.66 165.79 196.37 204.52 196.37"/><polyline class="cls-7" points="204.52 196.37 250.35 196.37 228.99 94.13 220.52 82.97 213.3 94.66"/><polyline class="cls-7" points="277.53 93.63 263.05 80.65 252.78 97.53 250.35 196.37 290.14 196.37"/><polyline class="cls-7" points="290.14 196.37 329.15 196.37 314.13 94.63 305.53 82.56 296.94 92.74"/><polyline class="cls-7" points="353.11 91.84 344.8 81.56 336.95 91.11 329.15 196.37 359.07 196.37"/><polyline class="cls-6" points="116.59 93.12 124.43 82.97 137.79 94.66 129.66 192.9"/><polyline class="cls-6" points="153.98 94.9 163.72 82.97 178.97 94.66 165.79 196.37"/><polyline class="cls-6" points="195.5 92.55 203.41 82.97 216.15 91.35 204.52 195.29"/><polyline class="cls-6" points="228.57 94.31 239.09 81.56 252.78 97.53 250.13 195.29 228.57 94.31"/><polyline class="cls-6" points="277.33 93.9 287.86 81.14 296.94 92.74 290.14 193.97 277.33 93.9"/><polyline class="cls-6" points="314.12 94.31 324.65 81.56 336.95 91.11 329.32 193.47 314.12 94.31"/><polyline class="cls-8" points="93.16 207.97 214.13 211.46 214.13 277.2 144.21 277.2 87.92 277.2 93.16 211.46"/><polyline class="cls-9" points="360.55 210.66 239.57 214.16 239.57 279.89 309.5 279.89 368.52 279.89 360.55 214.16"/><polygon class="cls-10" points="87.92 201.68 368.52 201.68 361.21 219.55 92.51 219.55 87.92 201.68"/></g></svg>